/videos/5142afdc-98b0-c2e9-f4ba-8d2d25ff36c5/hls1/main/0.ts

{"Protocol":0,"Id":"5142afdc98b0c2e9f4ba8d2d25ff36c5","Path":"/data/tvshows/Hunter x Hunter (2011)/Season 2/Hunter x Hunter (2011) - S02E18 - Reunion x And x Understanding Bluray-720p.mkv","EncoderPath":null,"EncoderProtocol":null,"Type":0,"Container":"mkv,webm","Size":468706212,"Name":"Hunter x Hunter (2011) - S02E18 - Reunion x And x Understanding Bluray-720p","IsRemote":false,"ETag":"f68a6ff595a6001a424a47ebdd286259","RunTimeTicks":14164179999,"ReadAtNativeFramerate":false,"IgnoreDts":false,"IgnoreIndex":false,"GenPtsInput":false,"SupportsTranscoding":true,"SupportsDirectStream":true,"SupportsDirectPlay":true,"IsInfiniteStream":false,"RequiresOpening":false,"OpenToken":null,"RequiresClosing":false,"LiveStreamId":null,"BufferMs":null,"RequiresLooping":false,"SupportsProbing":true,"VideoType":0,"IsoType":null,"Video3DFormat":null,"MediaStreams":[{"Codec":"h264","CodecTag":null,"Language":"jpn","ColorRange":null,"ColorSpace":null,"ColorTransfer":null,"ColorPrimaries":null,"DvVersionMajor":null,"DvVersionMinor":null,"DvProfile":null,"DvLevel":null,"RpuPresentFlag":null,"ElPresentFlag":null,"BlPresentFlag":null,"DvBlSignalCompatibilityId":null,"Comment":null,"TimeBase":"1/1000","CodecTimeBase":null,"Title":"Hunter x Hunter 076: Ritrovo x E x Comprensione","VideoRange":"SDR","VideoRangeType":"SDR","VideoDoViTitle":null,"LocalizedUndefined":null,"LocalizedDefault":null,"LocalizedForced":null,"LocalizedExternal":null,"DisplayTitle":"Hunter x Hunter 076: Ritrovo x E x Comprensione - 720p - H264 - SDR","NalLengthSize":"4","IsInterlaced":false,"IsAVC":true,"ChannelLayout":null,"BitRate":2647276,"BitDepth":10,"RefFrames":1,"PacketLength":null,"Channels":null,"SampleRate":null,"IsDefault":true,"IsForced":false,"Height":720,"Width":1280,"AverageFrameRate":23.976025,"RealFrameRate":23.976025,"Profile":"High 10","Type":1,"AspectRatio":"16:9","Index":0,"Score":null,"IsExternal":false,"DeliveryMethod":null,"DeliveryUrl":null,"IsExternalUrl":null,"IsTextSubtitleStream":false,"SupportsExternalStream":false,"Path":null,"PixelFormat":"yuv420p10le","Level":50,"IsAnamorphic":null},{"Codec":"opus","CodecTag":null,"Language":"jpn","ColorRange":null,"ColorSpace":null,"ColorTransfer":null,"ColorPrimaries":null,"DvVersionMajor":null,"DvVersionMinor":null,"DvProfile":null,"DvLevel":null,"RpuPresentFlag":null,"ElPresentFlag":null,"BlPresentFlag":null,"DvBlSignalCompatibilityId":null,"Comment":null,"TimeBase":"1/1000","CodecTimeBase":null,"Title":null,"VideoRange":null,"VideoRangeType":null,"VideoDoViTitle":null,"LocalizedUndefined":null,"LocalizedDefault":null,"LocalizedForced":null,"LocalizedExternal":null,"DisplayTitle":"Japanese - OPUS - Stereo - Default","NalLengthSize":null,"IsInterlaced":false,"IsAVC":null,"ChannelLayout":"stereo","BitRate":129029,"BitDepth":null,"RefFrames":null,"PacketLength":null,"Channels":2,"SampleRate":48000,"IsDefault":true,"IsForced":false,"Height":null,"Width":null,"AverageFrameRate":null,"RealFrameRate":null,"Profile":null,"Type":0,"AspectRatio":null,"Index":1,"Score":null,"IsExternal":false,"DeliveryMethod":null,"DeliveryUrl":null,"IsExternalUrl":null,"IsTextSubtitleStream":false,"SupportsExternalStream":false,"Path":null,"PixelFormat":null,"Level":0,"IsAnamorphic":null},{"Codec":"ass","CodecTag":null,"Language":"ita","ColorRange":null,"ColorSpace":null,"ColorTransfer":null,"ColorPrimaries":null,"DvVersionMajor":null,"DvVersionMinor":null,"DvProfile":null,"DvLevel":null,"RpuPresentFlag":null,"ElPresentFlag":null,"BlPresentFlag":null,"DvBlSignalCompatibilityId":null,"Comment":null,"TimeBase":"1/1000","CodecTimeBase":null,"Title":null,"VideoRange":null,"VideoRangeType":null,"VideoDoViTitle":null,"LocalizedUndefined":"Undefined","LocalizedDefault":"Default","LocalizedForced":"Forced","LocalizedExternal":"External","DisplayTitle":"Italian - Default - ASS","NalLengthSize":null,"IsInterlaced":false,"IsAVC":null,"ChannelLayout":null,"BitRate":null,"BitDepth":null,"RefFrames":null,"PacketLength":null,"Channels":null,"SampleRate":null,"IsDefault":true,"IsForced":false,"Height":null,"Width":null,"AverageFrameRate":null,"RealFrameRate":null,"Profile":null,"Type":2,"AspectRatio":null,"Index":2,"Score":null,"IsExternal":false,"DeliveryMethod":null,"DeliveryUrl":null,"IsExternalUrl":null,"IsTextSubtitleStream":true,"SupportsExternalStream":true,"Path":null,"PixelFormat":null,"Level":0,"IsAnamorphic":null}],"MediaAttachments":[{"Codec":"ttf","CodecTag":"[0][0][0][0]","Comment":null,"Index":3,"FileName":"Cardo-Bold.ttf","MimeType":"application/x-truetype-font","DeliveryUrl":null},{"Codec":"ttf","CodecTag":"[0][0][0][0]","Comment":null,"Index":4,"FileName":"Cardo-Italic.ttf","MimeType":"application/x-truetype-font","DeliveryUrl":null},{"Codec":"ttf","CodecTag":"[0][0][0][0]","Comment":null,"Index":5,"FileName":"Cardo-Regular.ttf","MimeType":"application/x-truetype-font","DeliveryUrl":null},{"Codec":"otf","CodecTag":"[0][0][0][0]","Comment":null,"Index":6,"FileName":"Chalkaholic DEMO.otf","MimeType":"application/vnd.ms-opentype","DeliveryUrl":null},{"Codec":"ttf","CodecTag":"[0][0][0][0]","Comment":null,"Index":7,"FileName":"DK CRAYON CRUMBLE_0.TTF","MimeType":"application/x-truetype-font","DeliveryUrl":null},{"Codec":"ttf","CodecTag":"[0][0][0][0]","Comment":null,"Index":8,"FileName":"edo.ttf","MimeType":"application/x-truetype-font","DeliveryUrl":null},{"Codec":"ttf","CodecTag":"[0][0][0][0]","Comment":null,"Index":9,"FileName":"flibustiere.ttf","MimeType":"application/x-truetype-font","DeliveryUrl":null},{"Codec":"ttf","CodecTag":"[0][0][0][0]","Comment":null,"Index":10,"FileName":"FOT Rodin Cattleta Pro B.ttf","MimeType":"application/x-truetype-font","DeliveryUrl":null},{"Codec":"otf","CodecTag":"[0][0][0][0]","Comment":null,"Index":11,"FileName":"FOT-HummingStd-E.otf","MimeType":"application/vnd.ms-opentype","DeliveryUrl":null},{"Codec":"otf","CodecTag":"[0][0][0][0]","Comment":null,"Index":12,"FileName":"FOT-HummingStdEn-B.OTF","MimeType":"application/vnd.ms-opentype","DeliveryUrl":null},{"Codec":"ttf","CodecTag":"[0][0][0][0]","Comment":null,"Index":13,"FileName":"FOT-KokinHige Std EB v999.ttf","MimeType":"application/x-truetype-font","DeliveryUrl":null},{"Codec":"otf","CodecTag":"[0][0][0][0]","Comment":null,"Index":14,"FileName":"FOT-ManyoKoinStd-B.otf","MimeType":"application/vnd.ms-opentype","DeliveryUrl":null},{"Codec":"ttf","CodecTag":"[0][0][0][0]","Comment":null,"Index":15,"FileName":"FOT-ManyoKoinStd-B_0.ttf","MimeType":"application/x-truetype-font","DeliveryUrl":null},{"Codec":"otf","CodecTag":"[0][0][0][0]","Comment":null,"Index":16,"FileName":"FOT-YurukaStd-UB.otf","MimeType":"application/vnd.ms-opentype","DeliveryUrl":null},{"Codec":"ttf","CodecTag":"[0][0][0][0]","Comment":null,"Index":17,"FileName":"GenBasB.ttf","MimeType":"application/x-truetype-font","DeliveryUrl":null},{"Codec":"ttf","CodecTag":"[0][0][0][0]","Comment":null,"Index":18,"FileName":"GenBasBI.ttf","MimeType":"application/x-truetype-font","DeliveryUrl":null},{"Codec":"ttf","CodecTag":"[0][0][0][0]","Comment":null,"Index":19,"FileName":"GenBasI.ttf","MimeType":"application/x-truetype-font","DeliveryUrl":null},{"Codec":"ttf","CodecTag":"[0][0][0][0]","Comment":null,"Index":20,"FileName":"GenBasR.ttf","MimeType":"application/x-truetype-font","DeliveryUrl":null},{"Codec":"ttf","CodecTag":"[0][0][0][0]","Comment":null,"Index":21,"FileName":"GenBkBasB.ttf","MimeType":"application/x-truetype-font","DeliveryUrl":null},{"Codec":"ttf","CodecTag":"[0][0][0][0]","Comment":null,"Index":22,"FileName":"GenBkBasBI.ttf","MimeType":"application/x-truetype-font","DeliveryUrl":null},{"Codec":"ttf","CodecTag":"[0][0][0][0]","Comment":null,"Index":23,"FileName":"GenBkBasI.ttf","MimeType":"application/x-truetype-font","DeliveryUrl":null},{"Codec":"ttf","CodecTag":"[0][0][0][0]","Comment":null,"Index":24,"FileName":"GenBkBasR.ttf","MimeType":"application/x-truetype-font","DeliveryUrl":null},{"Codec":"ttf","CodecTag":"[0][0][0][0]","Comment":null,"Index":25,"FileName":"HunterxHunterOP.ttf","MimeType":"application/x-truetype-font","DeliveryUrl":null},{"Codec":"ttf","CodecTag":"[0][0][0][0]","Comment":null,"Index":26,"FileName":"IwaGyoPro-Bd-Kami.ttf","MimeType":"application/x-truetype-font","DeliveryUrl":null},{"Codec":"otf","CodecTag":"[0][0][0][0]","Comment":null,"Index":27,"FileName":"IwaMaruGothicPro-M-En.otf","MimeType":"application/vnd.ms-opentype","DeliveryUrl":null},{"Codec":"otf","CodecTag":"[0][0][0][0]","Comment":null,"Index":28,"FileName":"IWAMINPRO-BD-EN.otf","MimeType":"application/vnd.ms-opentype","DeliveryUrl":null},{"Codec":"ttf","CodecTag":"[0][0][0][0]","Comment":null,"Index":29,"FileName":"IwaMinPro-Bd-NMG.ttf","MimeType":"application/x-truetype-font","DeliveryUrl":null},{"Codec":"ttf","CodecTag":"[0][0][0][0]","Comment":null,"Index":30,"FileName":"IwaMinPro-Lt-Madoka.ttf","MimeType":"application/x-truetype-font","DeliveryUrl":null},{"Codec":"ttf","CodecTag":"[0][0][0][0]","Comment":null,"Index":31,"FileName":"IwaMinPro-Md-Kami_0.ttf","MimeType":"application/x-truetype-font","DeliveryUrl":null},{"Codec":"ttf","CodecTag":"[0][0][0][0]","Comment":null,"Index":32,"FileName":"IwaOMinPro-Bd-Fate.ttf","MimeType":"application/x-truetype-font","DeliveryUrl":null},{"Codec":"otf","CodecTag":"[0][0][0][0]","Comment":null,"Index":33,"FileName":"IwaOMinPro-Hv-En.ttf","MimeType":"application/vnd.ms-opentype","DeliveryUrl":null},{"Codec":"ttf","CodecTag":"[0][0][0][0]","Comment":null,"Index":34,"FileName":"IwaOMinPro-Hv-Fate_0.ttf","MimeType":"application/x-truetype-font","DeliveryUrl":null},{"Codec":"ttf","CodecTag":"[0][0][0][0]","Comment":null,"Index":35,"FileName":"IwaRGoPro-Lt-Kami.ttf","MimeType":"application/x-truetype-font","DeliveryUrl":null},{"Codec":"ttf","CodecTag":"[0][0][0][0]","Comment":null,"Index":36,"FileName":"IWARGOPRO-MD-KAMI.TTF","MimeType":"application/x-truetype-font","DeliveryUrl":null},{"Codec":"otf","CodecTag":"[0][0][0][0]","Comment":null,"Index":37,"FileName":"Iwata Souchou Pro-Medium.otf","MimeType":"application/vnd.ms-opentype","DeliveryUrl":null},{"Codec":"ttf","CodecTag":"[0][0][0][0]","Comment":null,"Index":38,"FileName":"JandaCloserToFree-Regular.ttf","MimeType":"application/x-truetype-font","DeliveryUrl":null},{"Codec":"ttf","CodecTag":"[0][0][0][0]","Comment":null,"Index":39,"FileName":"KozGoProH-Madoka.ttf","MimeType":"application/x-truetype-font","DeliveryUrl":null},{"Codec":"ttf","CodecTag":"[0][0][0][0]","Comment":null,"Index":40,"FileName":"lato-heavy.ttf","MimeType":"application/x-truetype-font","DeliveryUrl":null},{"Codec":"otf","CodecTag":"[0][0][0][0]","Comment":null,"Index":41,"FileName":"MONTARA-GOTHIC.OTF","MimeType":"application/vnd.ms-opentype","DeliveryUrl":null},{"Codec":"ttf","CodecTag":"[0][0][0][0]","Comment":null,"Index":42,"FileName":"Polo Brush.ttf","MimeType":"application/x-truetype-font","DeliveryUrl":null},{"Codec":"ttf","CodecTag":"[0][0][0][0]","Comment":null,"Index":43,"FileName":"SBT-TsukuMin Pr5 E.ttf","MimeType":"application/x-truetype-font","DeliveryUrl":null},{"Codec":"ttf","CodecTag":"[0][0][0][0]","Comment":null,"Index":44,"FileName":"SHREDDED.TTF","MimeType":"application/x-truetype-font","DeliveryUrl":null},{"Codec":"ttf","CodecTag":"[0][0][0][0]","Comment":null,"Index":45,"FileName":"TarifArabic-Bold.ttf","MimeType":"application/x-truetype-font","DeliveryUrl":null},{"Codec":"ttf","CodecTag":"[0][0][0][0]","Comment":null,"Index":46,"FileName":"TarifArabic-Book.ttf","MimeType":"application/x-truetype-font","DeliveryUrl":null},{"Codec":"ttf","CodecTag":"[0][0][0][0]","Comment":null,"Index":47,"FileName":"TarifArabic-Extrabold.ttf","MimeType":"application/x-truetype-font","DeliveryUrl":null},{"Codec":"ttf","CodecTag":"[0][0][0][0]","Comment":null,"Index":48,"FileName":"TarifArabic-Extralight.ttf","MimeType":"application/x-truetype-font","DeliveryUrl":null},{"Codec":"ttf","CodecTag":"[0][0][0][0]","Comment":null,"Index":49,"FileName":"TarifArabic-Light.ttf","MimeType":"application/x-truetype-font","DeliveryUrl":null},{"Codec":"ttf","CodecTag":"[0][0][0][0]","Comment":null,"Index":50,"FileName":"TarifArabic-Medium.ttf","MimeType":"application/x-truetype-font","DeliveryUrl":null},{"Codec":"ttf","CodecTag":"[0][0][0][0]","Comment":null,"Index":51,"FileName":"TarifArabic-Regular.ttf","MimeType":"application/x-truetype-font","DeliveryUrl":null},{"Codec":"ttf","CodecTag":"[0][0][0][0]","Comment":null,"Index":52,"FileName":"Yu-Gi-Oh! Matrix Book.ttf","MimeType":"application/x-truetype-font","DeliveryUrl":null},{"Codec":"ttf","CodecTag":"[0][0][0][0]","Comment":null,"Index":53,"FileName":"Yu-Gi-Oh! Matrix Regular Small Caps 2.ttf","MimeType":"application/x-truetype-font","DeliveryUrl":null},{"Codec":"ttf","CodecTag":"[0][0][0][0]","Comment":null,"Index":54,"FileName":"EPSON sl.ttf","MimeType":"application/x-truetype-font","DeliveryUrl":null},{"Codec":"ttf","CodecTag":"[0][0][0][0]","Comment":null,"Index":55,"FileName":"Brush Strokes.ttf","MimeType":"application/x-truetype-font","DeliveryUrl":null},{"Codec":"ttf","CodecTag":"[0][0][0][0]","Comment":null,"Index":56,"FileName":"28 Days Later.ttf","MimeType":"application/x-truetype-font","DeliveryUrl":null},{"Codec":"ttf","CodecTag":"[0][0][0][0]","Comment":null,"Index":57,"FileName":"Ad HocRegular.ttf","MimeType":"application/x-truetype-font","DeliveryUrl":null},{"Codec":"ttf","CodecTag":"[0][0][0][0]","Comment":null,"Index":58,"FileName":"Adobe_Garamond_LT_Bold.ttf","MimeType":"application/x-truetype-font","DeliveryUrl":null},{"Codec":null,"CodecTag":"[0][0][0][0]","Comment":null,"Index":59,"FileName":"AdobeFnt20.lst","MimeType":"application/postscript","DeliveryUrl":null},{"Codec":"ttf","CodecTag":"[0][0][0][0]","Comment":null,"Index":60,"FileName":"AlegreyaSansSC-Black.ttf","MimeType":"application/x-truetype-font","DeliveryUrl":null},{"Codec":"ttf","CodecTag":"[0][0][0][0]","Comment":null,"Index":61,"FileName":"AlegreyaSansSC-BlackItalic.ttf","MimeType":"application/x-truetype-font","DeliveryUrl":null},{"Codec":"otf","CodecTag":"[0][0][0][0]","Comment":null,"Index":62,"FileName":"Amaranth-Bold.otf","MimeType":"application/vnd.ms-opentype","DeliveryUrl":null},{"Codec":"otf","CodecTag":"[0][0][0][0]","Comment":null,"Index":63,"FileName":"Amaranth-BoldItalic.otf","MimeType":"application/vnd.ms-opentype","DeliveryUrl":null},{"Codec":"otf","CodecTag":"[0][0][0][0]","Comment":null,"Index":64,"FileName":"Amaranth-Italic.otf","MimeType":"application/vnd.ms-opentype","DeliveryUrl":null},{"Codec":"otf","CodecTag":"[0][0][0][0]","Comment":null,"Index":65,"FileName":"Amaranth-Regular.otf","MimeType":"application/vnd.ms-opentype","DeliveryUrl":null},{"Codec":"ttf","CodecTag":"[0][0][0][0]","Comment":null,"Index":66,"FileName":"ARCENA.ttf","MimeType":"application/x-truetype-font","DeliveryUrl":null},{"Codec":"ttf","CodecTag":"[0][0][0][0]","Comment":null,"Index":67,"FileName":"ariblk.ttf","MimeType":"application/x-truetype-font","DeliveryUrl":null},{"Codec":"ttf","CodecTag":"[0][0][0][0]","Comment":null,"Index":68,"FileName":"BLOKLETTERS-VILTSTIFT-FXD.TTF","MimeType":"application/x-truetype-font","DeliveryUrl":null},{"Codec":"ttf","CodecTag":"[0][0][0][0]","Comment":null,"Index":69,"FileName":"calibri.ttf","MimeType":"application/x-truetype-font","DeliveryUrl":null},{"Codec":"ttf","CodecTag":"[0][0][0][0]","Comment":null,"Index":70,"FileName":"calibrib.ttf","MimeType":"application/x-truetype-font","DeliveryUrl":null},{"Codec":"ttf","CodecTag":"[0][0][0][0]","Comment":null,"Index":71,"FileName":"Calligraphic-810-BT_9088.ttf","MimeType":"application/x-truetype-font","DeliveryUrl":null}],"Formats":[],"Bitrate":2776305,"Timestamp":null,"RequiredHttpHeaders":{},"TranscodingUrl":null,"TranscodingSubProtocol":null,"TranscodingContainer":null,"AnalyzeDurationMs":null,"DefaultAudioStreamIndex":null,"DefaultSubtitleStreamIndex":null}

/usr/lib/jellyfin-ffmpeg/ffmpeg -analyzeduration 200M -fflags +genpts -f matroska,webm  -i file:"/data/tvshows/Hunter x Hunter (2011)/Season 2/Hunter x Hunter (2011) - S02E18 - Reunion x And x Understanding Bluray-720p.mkv" -map_metadata -1 -map_chapters -1 -threads 0 -map 0:0 -map 0:1 -map -0:s -codec:v:0 copy -bsf:v h264_mp4toannexb -start_at_zero -codec:a:0 libfdk_aac -ac 2 -ab 256000 -copyts -avoid_negative_ts disabled -max_muxing_queue_size 2048 -f hls -max_delay 5000000 -hls_time 6 -hls_segment_type mpegts -start_number 0 -hls_segment_filename "/data/transcodes/d44f38ee81425abebdbfdefd75a80db1%d.ts" -hls_playlist_type vod -hls_list_size 0 -y "/data/transcodes/d44f38ee81425abebdbfdefd75a80db1.m3u8"


ffmpeg version 5.1.3-Jellyfin Copyright (c) 2000-2022 the FFmpeg developers
  built with gcc 11 (Ubuntu 11.3.0-1ubuntu1~22.04.1)
  configuration: --prefix=/usr/lib/jellyfin-ffmpeg --target-os=linux --extra-libs=-lfftw3f --extra-version=Jellyfin --disable-doc --disable-ffplay --disable-ptx-compression --disable-static --disable-libxcb --disable-sdl2 --disable-xlib --enable-lto --enable-gpl --enable-version3 --enable-shared --enable-gmp --enable-gnutls --enable-chromaprint --enable-libdrm --enable-libass --enable-libfreetype --enable-libfribidi --enable-libfontconfig --enable-libbluray --enable-libmp3lame --enable-libopus --enable-libtheora --enable-libvorbis --enable-libopenmpt --enable-libdav1d --enable-libwebp --enable-libvpx --enable-libx264 --enable-libx265 --enable-libzvbi --enable-libzimg --enable-libfdk-aac --arch=amd64 --enable-libsvtav1 --enable-libshaderc --enable-libplacebo --enable-vulkan --enable-opencl --enable-vaapi --enable-amf --enable-libmfx --enable-ffnvcodec --enable-cuda --enable-cuda-llvm --enable-cuvid --enable-nvdec --enable-nvenc
  libavutil      57. 28.100 / 57. 28.100
  libavcodec     59. 37.100 / 59. 37.100
  libavformat    59. 27.100 / 59. 27.100
  libavdevice    59.  7.100 / 59.  7.100
  libavfilter     8. 44.100 /  8. 44.100
  libswscale      6.  7.100 /  6.  7.100
  libswresample   4.  7.100 /  4.  7.100
  libpostproc    56.  6.100 / 56.  6.100
[matroska,webm @ 0x5578096d8a00] Could not find codec parameters for stream 59 (Attachment: none): unknown codec
Consider increasing the value for the 'analyzeduration' (200000000) and 'probesize' (5000000) options
Input #0, matroska,webm, from 'file:/data/tvshows/Hunter x Hunter (2011)/Season 2/Hunter x Hunter (2011) - S02E18 - Reunion x And x Understanding Bluray-720p.mkv':
  Metadata:
    creation_time   : 2021-01-02T10:24:04.000000Z
    ENCODER         : Lavf58.27.103
  Duration: 00:23:36.42, start: -0.007000, bitrate: 2647 kb/s
  Chapters:
    Chapter #0:0: start 0.000000, end 43.008000
      Metadata:
        title           : Prologo
    Chapter #0:1: start 43.050000, end 122.963000
      Metadata:
        title           : Sigla iniziale
    Chapter #0:2: start 123.005000, end 546.011000
      Metadata:
        title           : Prima parte
    Chapter #0:3: start 546.053000, end 1320.034000
      Metadata:
        title           : Seconda parte
    Chapter #0:4: start 1320.076000, end 1400.031000
      Metadata:
        title           : Sigla finale
    Chapter #0:5: start 1400.072000, end 1415.046000
      Metadata:
        title           : Anticipazioni
  Stream #0:0(jpn): Video: h264 (High 10), yuv420p10le(progressive), 1280x720, SAR 1:1 DAR 16:9, 23.98 fps, 23.98 tbr, 1k tbn (default)
    Metadata:
      title           : Hunter x Hunter 076: Ritrovo x E x Comprensione
      BPS-eng         : 2124492
      DURATION-eng    : 00:23:35.088000000
      NUMBER_OF_FRAMES-eng: 33928
      NUMBER_OF_BYTES-eng: 375792961
      _STATISTICS_WRITING_APP-eng: mkvmerge v34.0.0 ('Sight and Seen') 64-bit
      _STATISTICS_WRITING_DATE_UTC-eng: 2021-01-02 10:24:04
      _STATISTICS_TAGS-eng: BPS DURATION NUMBER_OF_FRAMES NUMBER_OF_BYTES
  Stream #0:1(jpn): Audio: opus, 48000 Hz, stereo, fltp (default)
    Metadata:
      ENCODER         : Lavc58.52.102 libopus
      BPS-eng         : 129029
      DURATION-eng    : 00:23:36.418000000
      NUMBER_OF_FRAMES-eng: 70821
      NUMBER_OF_BYTES-eng: 22844997
      _STATISTICS_WRITING_APP-eng: mkvmerge v34.0.0 ('Sight and Seen') 64-bit
      _STATISTICS_WRITING_DATE_UTC-eng: 2021-01-02 10:24:04
      _STATISTICS_TAGS-eng: BPS DURATION NUMBER_OF_FRAMES NUMBER_OF_BYTES
  Stream #0:2(ita): Subtitle: ass (default)
    Metadata:
      BPS-eng         : 10668
      DURATION-eng    : 00:23:32.130000000
      NUMBER_OF_FRAMES-eng: 1840
      NUMBER_OF_BYTES-eng: 1883107
      _STATISTICS_WRITING_APP-eng: mkvmerge v34.0.0 ('Sight and Seen') 64-bit
      _STATISTICS_WRITING_DATE_UTC-eng: 2021-01-02 10:24:04
      _STATISTICS_TAGS-eng: BPS DURATION NUMBER_OF_FRAMES NUMBER_OF_BYTES
  Stream #0:3: Attachment: ttf
    Metadata:
      filename        : Cardo-Bold.ttf
      mimetype        : application/x-truetype-font
  Stream #0:4: Attachment: ttf
    Metadata:
      filename        : Cardo-Italic.ttf
      mimetype        : application/x-truetype-font
  Stream #0:5: Attachment: ttf
    Metadata:
      filename        : Cardo-Regular.ttf
      mimetype        : application/x-truetype-font
  Stream #0:6: Attachment: otf
    Metadata:
      filename        : Chalkaholic DEMO.otf
      mimetype        : application/vnd.ms-opentype
  Stream #0:7: Attachment: ttf
    Metadata:
      filename        : DK CRAYON CRUMBLE_0.TTF
      mimetype        : application/x-truetype-font
  Stream #0:8: Attachment: ttf
    Metadata:
      filename        : edo.ttf
      mimetype        : application/x-truetype-font
  Stream #0:9: Attachment: ttf
    Metadata:
      filename        : flibustiere.ttf
      mimetype        : application/x-truetype-font
  Stream #0:10: Attachment: ttf
    Metadata:
      filename        : FOT Rodin Cattleta Pro B.ttf
      mimetype        : application/x-truetype-font
  Stream #0:11: Attachment: otf
    Metadata:
      filename        : FOT-HummingStd-E.otf
      mimetype        : application/vnd.ms-opentype
  Stream #0:12: Attachment: otf
    Metadata:
      filename        : FOT-HummingStdEn-B.OTF
      mimetype        : application/vnd.ms-opentype
  Stream #0:13: Attachment: ttf
    Metadata:
      filename        : FOT-KokinHige Std EB v999.ttf
      mimetype        : application/x-truetype-font
  Stream #0:14: Attachment: otf
    Metadata:
      filename        : FOT-ManyoKoinStd-B.otf
      mimetype        : application/vnd.ms-opentype
  Stream #0:15: Attachment: ttf
    Metadata:
      filename        : FOT-ManyoKoinStd-B_0.ttf
      mimetype        : application/x-truetype-font
  Stream #0:16: Attachment: otf
    Metadata:
      filename        : FOT-YurukaStd-UB.otf
      mimetype        : application/vnd.ms-opentype
  Stream #0:17: Attachment: ttf
    Metadata:
      filename        : GenBasB.ttf
      mimetype        : application/x-truetype-font
  Stream #0:18: Attachment: ttf
    Metadata:
      filename        : GenBasBI.ttf
      mimetype        : application/x-truetype-font
  Stream #0:19: Attachment: ttf
    Metadata:
      filename        : GenBasI.ttf
      mimetype        : application/x-truetype-font
  Stream #0:20: Attachment: ttf
    Metadata:
      filename        : GenBasR.ttf
      mimetype        : application/x-truetype-font
  Stream #0:21: Attachment: ttf
    Metadata:
      filename        : GenBkBasB.ttf
      mimetype        : application/x-truetype-font
  Stream #0:22: Attachment: ttf
    Metadata:
      filename        : GenBkBasBI.ttf
      mimetype        : application/x-truetype-font
  Stream #0:23: Attachment: ttf
    Metadata:
      filename        : GenBkBasI.ttf
      mimetype        : application/x-truetype-font
  Stream #0:24: Attachment: ttf
    Metadata:
      filename        : GenBkBasR.ttf
      mimetype        : application/x-truetype-font
  Stream #0:25: Attachment: ttf
    Metadata:
      filename        : HunterxHunterOP.ttf
      mimetype        : application/x-truetype-font
  Stream #0:26: Attachment: ttf
    Metadata:
      filename        : IwaGyoPro-Bd-Kami.ttf
      mimetype        : application/x-truetype-font
  Stream #0:27: Attachment: otf
    Metadata:
      filename        : IwaMaruGothicPro-M-En.otf
      mimetype        : application/vnd.ms-opentype
  Stream #0:28: Attachment: otf
    Metadata:
      filename        : IWAMINPRO-BD-EN.otf
      mimetype        : application/vnd.ms-opentype
  Stream #0:29: Attachment: ttf
    Metadata:
      filename        : IwaMinPro-Bd-NMG.ttf
      mimetype        : application/x-truetype-font
  Stream #0:30: Attachment: ttf
    Metadata:
      filename        : IwaMinPro-Lt-Madoka.ttf
      mimetype        : application/x-truetype-font
  Stream #0:31: Attachment: ttf
    Metadata:
      filename        : IwaMinPro-Md-Kami_0.ttf
      mimetype        : application/x-truetype-font
  Stream #0:32: Attachment: ttf
    Metadata:
      filename        : IwaOMinPro-Bd-Fate.ttf
      mimetype        : application/x-truetype-font
  Stream #0:33: Attachment: otf
    Metadata:
      filename        : IwaOMinPro-Hv-En.ttf
      mimetype        : application/vnd.ms-opentype
  Stream #0:34: Attachment: ttf
    Metadata:
      filename        : IwaOMinPro-Hv-Fate_0.ttf
      mimetype        : application/x-truetype-font
  Stream #0:35: Attachment: ttf
    Metadata:
      filename        : IwaRGoPro-Lt-Kami.ttf
      mimetype        : application/x-truetype-font
  Stream #0:36: Attachment: ttf
    Metadata:
      filename        : IWARGOPRO-MD-KAMI.TTF
      mimetype        : application/x-truetype-font
  Stream #0:37: Attachment: otf
    Metadata:
      filename        : Iwata Souchou Pro-Medium.otf
      mimetype        : application/vnd.ms-opentype
  Stream #0:38: Attachment: ttf
    Metadata:
      filename        : JandaCloserToFree-Regular.ttf
      mimetype        : application/x-truetype-font
  Stream #0:39: Attachment: ttf
    Metadata:
      filename        : KozGoProH-Madoka.ttf
      mimetype        : application/x-truetype-font
  Stream #0:40: Attachment: ttf
    Metadata:
      filename        : lato-heavy.ttf
      mimetype        : application/x-truetype-font
  Stream #0:41: Attachment: otf
    Metadata:
      filename        : MONTARA-GOTHIC.OTF
      mimetype        : application/vnd.ms-opentype
  Stream #0:42: Attachment: ttf
    Metadata:
      filename        : Polo Brush.ttf
      mimetype        : application/x-truetype-font
  Stream #0:43: Attachment: ttf
    Metadata:
      filename        : SBT-TsukuMin Pr5 E.ttf
      mimetype        : application/x-truetype-font
  Stream #0:44: Attachment: ttf
    Metadata:
      filename        : SHREDDED.TTF
      mimetype        : application/x-truetype-font
  Stream #0:45: Attachment: ttf
    Metadata:
      filename        : TarifArabic-Bold.ttf
      mimetype        : application/x-truetype-font
  Stream #0:46: Attachment: ttf
    Metadata:
      filename        : TarifArabic-Book.ttf
      mimetype        : application/x-truetype-font
  Stream #0:47: Attachment: ttf
    Metadata:
      filename        : TarifArabic-Extrabold.ttf
      mimetype        : application/x-truetype-font
  Stream #0:48: Attachment: ttf
    Metadata:
      filename        : TarifArabic-Extralight.ttf
      mimetype        : application/x-truetype-font
  Stream #0:49: Attachment: ttf
    Metadata:
      filename        : TarifArabic-Light.ttf
      mimetype        : application/x-truetype-font
  Stream #0:50: Attachment: ttf
    Metadata:
      filename        : TarifArabic-Medium.ttf
      mimetype        : application/x-truetype-font
  Stream #0:51: Attachment: ttf
    Metadata:
      filename        : TarifArabic-Regular.ttf
      mimetype        : application/x-truetype-font
  Stream #0:52: Attachment: ttf
    Metadata:
      filename        : Yu-Gi-Oh! Matrix Book.ttf
      mimetype        : application/x-truetype-font
  Stream #0:53: Attachment: ttf
    Metadata:
      filename        : Yu-Gi-Oh! Matrix Regular Small Caps 2.ttf
      mimetype        : application/x-truetype-font
  Stream #0:54: Attachment: ttf
    Metadata:
      filename        : EPSON sl.ttf
      mimetype        : application/x-truetype-font
  Stream #0:55: Attachment: ttf
    Metadata:
      filename        : Brush Strokes.ttf
      mimetype        : application/x-truetype-font
  Stream #0:56: Attachment: ttf
    Metadata:
      filename        : 28 Days Later.ttf
      mimetype        : application/x-truetype-font
  Stream #0:57: Attachment: ttf
    Metadata:
      filename        : Ad HocRegular.ttf
      mimetype        : application/x-truetype-font
  Stream #0:58: Attachment: ttf
    Metadata:
      filename        : Adobe_Garamond_LT_Bold.ttf
      mimetype        : application/x-truetype-font
  Stream #0:59: Attachment: none
    Metadata:
      filename        : AdobeFnt20.lst
      mimetype        : application/postscript
  Stream #0:60: Attachment: ttf
    Metadata:
      filename        : AlegreyaSansSC-Black.ttf
      mimetype        : application/x-truetype-font
  Stream #0:61: Attachment: ttf
    Metadata:
      filename        : AlegreyaSansSC-BlackItalic.ttf
      mimetype        : application/x-truetype-font
  Stream #0:62: Attachment: otf
    Metadata:
      filename        : Amaranth-Bold.otf
      mimetype        : application/vnd.ms-opentype
  Stream #0:63: Attachment: otf
    Metadata:
      filename        : Amaranth-BoldItalic.otf
      mimetype        : application/vnd.ms-opentype
  Stream #0:64: Attachment: otf
    Metadata:
      filename        : Amaranth-Italic.otf
      mimetype        : application/vnd.ms-opentype
  Stream #0:65: Attachment: otf
    Metadata:
      filename        : Amaranth-Regular.otf
      mimetype        : application/vnd.ms-opentype
  Stream #0:66: Attachment: ttf
    Metadata:
      filename        : ARCENA.ttf
      mimetype        : application/x-truetype-font
  Stream #0:67: Attachment: ttf
    Metadata:
      filename        : ariblk.ttf
      mimetype        : application/x-truetype-font
  Stream #0:68: Attachment: ttf
    Metadata:
      filename        : BLOKLETTERS-VILTSTIFT-FXD.TTF
      mimetype        : application/x-truetype-font
  Stream #0:69: Attachment: ttf
    Metadata:
      filename        : calibri.ttf
      mimetype        : application/x-truetype-font
  Stream #0:70: Attachment: ttf
    Metadata:
      filename        : calibrib.ttf
      mimetype        : application/x-truetype-font
  Stream #0:71: Attachment: ttf
    Metadata:
      filename        : Calligraphic-810-BT_9088.ttf
      mimetype        : application/x-truetype-font
Stream mapping:
  Stream #0:0 -> #0:0 (copy)
  Stream #0:1 -> #0:1 (opus (native) -> aac (libfdk_aac))
Press [q] to stop, [?] for help
Output #0, hls, to '/data/transcodes/d44f38ee81425abebdbfdefd75a80db1.m3u8':
  Metadata:
    encoder         : Lavf59.27.100
  Stream #0:0: Video: h264 (High 10), yuv420p10le(progressive), 1280x720 [SAR 1:1 DAR 16:9], q=2-31, 23.98 fps, 23.98 tbr, 90k tbn (default)
  Stream #0:1: Audio: aac, 48000 Hz, stereo, s16, 256 kb/s (default)
    Metadata:
      encoder         : Lavc59.37.100 libfdk_aac
frame=    0 fps=0.0 q=-1.0 size=N/A time=00:00:00.00 bitrate=N/A speed=N/A    
[hls @ 0x55780e13df40] Opening '/data/transcodes/d44f38ee81425abebdbfdefd75a80db10.ts' for writing
[hls @ 0x55780e13df40] Opening '/data/transcodes/d44f38ee81425abebdbfdefd75a80db11.ts' for writing
[hls @ 0x55780e13df40] Opening '/data/transcodes/d44f38ee81425abebdbfdefd75a80db12.ts' for writing
frame=  604 fps=0.0 q=-1.0 size=N/A time=00:00:00.29 bitrate=N/A speed=0.584x    
[hls @ 0x55780e13df40] Opening '/data/transcodes/d44f38ee81425abebdbfdefd75a80db13.ts' for writing
[hls @ 0x55780e13df40] Opening '/data/transcodes/d44f38ee81425abebdbfdefd75a80db14.ts' for writing
[hls @ 0x55780e13df40] Opening '/data/transcodes/d44f38ee81425abebdbfdefd75a80db15.ts' for writing
[hls @ 0x55780e13df40] Opening '/data/transcodes/d44f38ee81425abebdbfdefd75a80db16.ts' for writing
frame= 1187 fps=1187 q=-1.0 size=N/A time=00:00:24.52 bitrate=N/A speed=24.5x    
[hls @ 0x55780e13df40] Opening '/data/transcodes/d44f38ee81425abebdbfdefd75a80db17.ts' for writing
[hls @ 0x55780e13df40] Opening '/data/transcodes/d44f38ee81425abebdbfdefd75a80db18.ts' for writing
[hls @ 0x55780e13df40] Opening '/data/transcodes/d44f38ee81425abebdbfdefd75a80db19.ts' for writing
frame= 1690 fps=1126 q=-1.0 size=N/A time=00:00:45.56 bitrate=N/A speed=30.4x    
[hls @ 0x55780e13df40] Opening '/data/transcodes/d44f38ee81425abebdbfdefd75a80db110.ts' for writing
[hls @ 0x55780e13df40] Opening '/data/transcodes/d44f38ee81425abebdbfdefd75a80db111.ts' for writing
[hls @ 0x55780e13df40] Opening '/data/transcodes/d44f38ee81425abebdbfdefd75a80db112.ts' for writing
frame= 2240 fps=1120 q=-1.0 size=N/A time=00:01:08.43 bitrate=N/A speed=34.2x    
[hls @ 0x55780e13df40] Opening '/data/transcodes/d44f38ee81425abebdbfdefd75a80db113.ts' for writing
[hls @ 0x55780e13df40] Opening '/data/transcodes/d44f38ee81425abebdbfdefd75a80db114.ts' for writing
frame= 2767 fps=1106 q=-1.0 size=N/A time=00:01:30.55 bitrate=N/A speed=36.2x    
[hls @ 0x55780e13df40] Opening '/data/transcodes/d44f38ee81425abebdbfdefd75a80db115.ts' for writing
[hls @ 0x55780e13df40] Opening '/data/transcodes/d44f38ee81425abebdbfdefd75a80db116.ts' for writing
[hls @ 0x55780e13df40] Opening '/data/transcodes/d44f38ee81425abebdbfdefd75a80db117.ts' for writing
[hls @ 0x55780e13df40] Opening '/data/transcodes/d44f38ee81425abebdbfdefd75a80db118.ts' for writing
frame= 3315 fps=1105 q=-1.0 size=N/A time=00:01:53.25 bitrate=N/A speed=37.7x    
[hls @ 0x55780e13df40] Opening '/data/transcodes/d44f38ee81425abebdbfdefd75a80db119.ts' for writing
[hls @ 0x55780e13df40] Opening '/data/transcodes/d44f38ee81425abebdbfdefd75a80db120.ts' for writing
[hls @ 0x55780e13df40] Opening '/data/transcodes/d44f38ee81425abebdbfdefd75a80db121.ts' for writing
[hls @ 0x55780e13df40] Opening '/data/transcodes/d44f38ee81425abebdbfdefd75a80db122.ts' for writing
[hls @ 0x55780e13df40] Opening '/data/transcodes/d44f38ee81425abebdbfdefd75a80db123.ts' for writing
frame= 3879 fps=1108 q=-1.0 size=N/A time=00:02:16.84 bitrate=N/A speed=39.1x    
[hls @ 0x55780e13df40] Opening '/data/transcodes/d44f38ee81425abebdbfdefd75a80db124.ts' for writing
[hls @ 0x55780e13df40] Opening '/data/transcodes/d44f38ee81425abebdbfdefd75a80db125.ts' for writing
[hls @ 0x55780e13df40] Opening '/data/transcodes/d44f38ee81425abebdbfdefd75a80db126.ts' for writing
[hls @ 0x55780e13df40] Opening '/data/transcodes/d44f38ee81425abebdbfdefd75a80db127.ts' for writing
[hls @ 0x55780e13df40] Opening '/data/transcodes/d44f38ee81425abebdbfdefd75a80db128.ts' for writing
frame= 4445 fps=1111 q=-1.0 size=N/A time=00:02:40.37 bitrate=N/A speed=40.1x    
[hls @ 0x55780e13df40] Opening '/data/transcodes/d44f38ee81425abebdbfdefd75a80db129.ts' for writing
[hls @ 0x55780e13df40] Opening '/data/transcodes/d44f38ee81425abebdbfdefd75a80db130.ts' for writing
frame= 5035 fps=1119 q=-1.0 size=N/A time=00:03:05.23 bitrate=N/A speed=41.2x    
[hls @ 0x55780e13df40] Opening '/data/transcodes/d44f38ee81425abebdbfdefd75a80db131.ts' for writing
[hls @ 0x55780e13df40] Opening '/data/transcodes/d44f38ee81425abebdbfdefd75a80db132.ts' for writing
[hls @ 0x55780e13df40] Opening '/data/transcodes/d44f38ee81425abebdbfdefd75a80db133.ts' for writing
[hls @ 0x55780e13df40] Opening '/data/transcodes/d44f38ee81425abebdbfdefd75a80db134.ts' for writing
[hls @ 0x55780e13df40] Opening '/data/transcodes/d44f38ee81425abebdbfdefd75a80db135.ts' for writing
[hls @ 0x55780e13df40] Opening '/data/transcodes/d44f38ee81425abebdbfdefd75a80db136.ts' for writing
[hls @ 0x55780e13df40] Opening '/data/transcodes/d44f38ee81425abebdbfdefd75a80db137.ts' for writing
frame= 5626 fps=1125 q=-1.0 size=N/A time=00:03:29.74 bitrate=N/A speed=41.9x    
[hls @ 0x55780e13df40] Opening '/data/transcodes/d44f38ee81425abebdbfdefd75a80db138.ts' for writing
[hls @ 0x55780e13df40] Opening '/data/transcodes/d44f38ee81425abebdbfdefd75a80db139.ts' for writing
[hls @ 0x55780e13df40] Opening '/data/transcodes/d44f38ee81425abebdbfdefd75a80db140.ts' for writing
[hls @ 0x55780e13df40] Opening '/data/transcodes/d44f38ee81425abebdbfdefd75a80db141.ts' for writing
frame= 6215 fps=1130 q=-1.0 size=N/A time=00:03:54.29 bitrate=N/A speed=42.6x    
[hls @ 0x55780e13df40] Opening '/data/transcodes/d44f38ee81425abebdbfdefd75a80db142.ts' for writing
[hls @ 0x55780e13df40] Opening '/data/transcodes/d44f38ee81425abebdbfdefd75a80db143.ts' for writing
[hls @ 0x55780e13df40] Opening '/data/transcodes/d44f38ee81425abebdbfdefd75a80db144.ts' for writing
[hls @ 0x55780e13df40] Opening '/data/transcodes/d44f38ee81425abebdbfdefd75a80db145.ts' for writing
frame= 6774 fps=1129 q=-1.0 size=N/A time=00:04:17.59 bitrate=N/A speed=42.9x    
[hls @ 0x55780e13df40] Opening '/data/transcodes/d44f38ee81425abebdbfdefd75a80db146.ts' for writing
[hls @ 0x55780e13df40] Opening '/data/transcodes/d44f38ee81425abebdbfdefd75a80db147.ts' for writing
[hls @ 0x55780e13df40] Opening '/data/transcodes/d44f38ee81425abebdbfdefd75a80db148.ts' for writing
[hls @ 0x55780e13df40] Opening '/data/transcodes/d44f38ee81425abebdbfdefd75a80db149.ts' for writing
frame= 7374 fps=1134 q=-1.0 size=N/A time=00:04:42.61 bitrate=N/A speed=43.5x    
[hls @ 0x55780e13df40] Opening '/data/transcodes/d44f38ee81425abebdbfdefd75a80db150.ts' for writing
[hls @ 0x55780e13df40] Opening '/data/transcodes/d44f38ee81425abebdbfdefd75a80db151.ts' for writing
[hls @ 0x55780e13df40] Opening '/data/transcodes/d44f38ee81425abebdbfdefd75a80db152.ts' for writing
[hls @ 0x55780e13df40] Opening '/data/transcodes/d44f38ee81425abebdbfdefd75a80db153.ts' for writing
[hls @ 0x55780e13df40] Opening '/data/transcodes/d44f38ee81425abebdbfdefd75a80db154.ts' for writing
frame= 7973 fps=1139 q=-1.0 size=N/A time=00:05:07.64 bitrate=N/A speed=43.9x    
[hls @ 0x55780e13df40] Opening '/data/transcodes/d44f38ee81425abebdbfdefd75a80db155.ts' for writing
[hls @ 0x55780e13df40] Opening '/data/transcodes/d44f38ee81425abebdbfdefd75a80db156.ts' for writing
[hls @ 0x55780e13df40] Opening '/data/transcodes/d44f38ee81425abebdbfdefd75a80db157.ts' for writing
[hls @ 0x55780e13df40] Opening '/data/transcodes/d44f38ee81425abebdbfdefd75a80db158.ts' for writing
frame= 8624 fps=1150 q=-1.0 size=N/A time=00:05:34.77 bitrate=N/A speed=44.6x    
[hls @ 0x55780e13df40] Opening '/data/transcodes/d44f38ee81425abebdbfdefd75a80db159.ts' for writing
[hls @ 0x55780e13df40] Opening '/data/transcodes/d44f38ee81425abebdbfdefd75a80db160.ts' for writing
[hls @ 0x55780e13df40] Opening '/data/transcodes/d44f38ee81425abebdbfdefd75a80db161.ts' for writing
[hls @ 0x55780e13df40] Opening '/data/transcodes/d44f38ee81425abebdbfdefd75a80db162.ts' for writing
frame= 9219 fps=1152 q=-1.0 size=N/A time=00:05:59.73 bitrate=N/A speed=  45x    
[hls @ 0x55780e13df40] Opening '/data/transcodes/d44f38ee81425abebdbfdefd75a80db163.ts' for writing
[hls @ 0x55780e13df40] Opening '/data/transcodes/d44f38ee81425abebdbfdefd75a80db164.ts' for writing
[hls @ 0x55780e13df40] Opening '/data/transcodes/d44f38ee81425abebdbfdefd75a80db165.ts' for writing
[hls @ 0x55780e13df40] Opening '/data/transcodes/d44f38ee81425abebdbfdefd75a80db166.ts' for writing
[hls @ 0x55780e13df40] Opening '/data/transcodes/d44f38ee81425abebdbfdefd75a80db167.ts' for writing
frame= 9806 fps=1153 q=-1.0 size=N/A time=00:06:24.03 bitrate=N/A speed=45.2x    
[hls @ 0x55780e13df40] Opening '/data/transcodes/d44f38ee81425abebdbfdefd75a80db168.ts' for writing
[hls @ 0x55780e13df40] Opening '/data/transcodes/d44f38ee81425abebdbfdefd75a80db169.ts' for writing
frame=10374 fps=1152 q=-1.0 size=N/A time=00:06:47.71 bitrate=N/A speed=45.3x    
[hls @ 0x55780e13df40] Opening '/data/transcodes/d44f38ee81425abebdbfdefd75a80db170.ts' for writing
[hls @ 0x55780e13df40] Opening '/data/transcodes/d44f38ee81425abebdbfdefd75a80db171.ts' for writing
[hls @ 0x55780e13df40] Opening '/data/transcodes/d44f38ee81425abebdbfdefd75a80db172.ts' for writing
frame=11023 fps=1160 q=-1.0 size=N/A time=00:07:14.91 bitrate=N/A speed=45.8x    
[hls @ 0x55780e13df40] Opening '/data/transcodes/d44f38ee81425abebdbfdefd75a80db173.ts' for writing
[hls @ 0x55780e13df40] Opening '/data/transcodes/d44f38ee81425abebdbfdefd75a80db174.ts' for writing
frame=11530 fps=1153 q=-1.0 size=N/A time=00:07:36.03 bitrate=N/A speed=45.6x    
[hls @ 0x55780e13df40] Opening '/data/transcodes/d44f38ee81425abebdbfdefd75a80db175.ts' for writing
[hls @ 0x55780e13df40] Opening '/data/transcodes/d44f38ee81425abebdbfdefd75a80db176.ts' for writing
[hls @ 0x55780e13df40] Opening '/data/transcodes/d44f38ee81425abebdbfdefd75a80db177.ts' for writing
frame=12093 fps=1151 q=-1.0 size=N/A time=00:07:59.41 bitrate=N/A speed=45.6x    
[hls @ 0x55780e13df40] Opening '/data/transcodes/d44f38ee81425abebdbfdefd75a80db178.ts' for writing
[hls @ 0x55780e13df40] Opening '/data/transcodes/d44f38ee81425abebdbfdefd75a80db179.ts' for writing
[hls @ 0x55780e13df40] Opening '/data/transcodes/d44f38ee81425abebdbfdefd75a80db180.ts' for writing
[hls @ 0x55780e13df40] Opening '/data/transcodes/d44f38ee81425abebdbfdefd75a80db181.ts' for writing
frame=12669 fps=1151 q=-1.0 size=N/A time=00:08:23.37 bitrate=N/A speed=45.7x    
[hls @ 0x55780e13df40] Opening '/data/transcodes/d44f38ee81425abebdbfdefd75a80db182.ts' for writing
[hls @ 0x55780e13df40] Opening '/data/transcodes/d44f38ee81425abebdbfdefd75a80db183.ts' for writing
[hls @ 0x55780e13df40] Opening '/data/transcodes/d44f38ee81425abebdbfdefd75a80db184.ts' for writing
[hls @ 0x55780e13df40] Opening '/data/transcodes/d44f38ee81425abebdbfdefd75a80db185.ts' for writing
[hls @ 0x55780e13df40] Opening '/data/transcodes/d44f38ee81425abebdbfdefd75a80db186.ts' for writing
frame=13139 fps=1142 q=-1.0 size=N/A time=00:08:43.04 bitrate=N/A speed=45.5x    
[hls @ 0x55780e13df40] Opening '/data/transcodes/d44f38ee81425abebdbfdefd75a80db187.ts' for writing
[hls @ 0x55780e13df40] Opening '/data/transcodes/d44f38ee81425abebdbfdefd75a80db188.ts' for writing
[hls @ 0x55780e13df40] Opening '/data/transcodes/d44f38ee81425abebdbfdefd75a80db189.ts' for writing
[hls @ 0x55780e13df40] Opening '/data/transcodes/d44f38ee81425abebdbfdefd75a80db190.ts' for writing
[hls @ 0x55780e13df40] Opening '/data/transcodes/d44f38ee81425abebdbfdefd75a80db191.ts' for writing


[q] command received. Exiting.

[hls @ 0x55780e13df40] Opening '/data/transcodes/d44f38ee81425abebdbfdefd75a80db192.ts' for writing
frame=13505 fps=1142 q=-1.0 Lsize=N/A time=00:08:58.31 bitrate=N/A speed=45.5x    
video:167689kB audio:17607kB subtitle:0kB other streams:0kB global headers:0kB muxing overhead: unknown